<svg width="341" height="341" viewBox="0 0 341 341" fill="none" xmlns="http://www.w3.org/2000/svg">
<circle cx="170.5" cy="170.5" r="170.5" fill="#1D5396"/>
<path d="M265.409 220.279C265.409 218.819 265.923 217.574 266.951 216.546C267.979 215.518 269.223 215.004 270.684 215.004C272.145 215.004 273.389 215.518 274.417 216.546C275.445 217.574 275.959 218.819 275.959 220.279V252.336C275.959 254.743 275.499 257.043 274.58 259.207C273.66 261.371 272.415 263.237 270.792 264.806C269.169 266.375 267.303 267.62 265.193 268.539C263.056 269.459 260.783 269.919 258.376 269.919C255.968 269.919 253.696 269.459 251.559 268.539C249.449 267.62 247.555 266.375 245.959 264.806C244.336 263.237 243.091 261.371 242.172 259.207C241.252 257.043 240.792 254.77 240.792 252.336V220.279C240.792 218.819 241.306 217.574 242.334 216.546C243.362 215.518 244.606 215.004 246.067 215.004C247.528 215.004 248.772 215.518 249.8 216.546C250.828 217.574 251.342 218.819 251.342 220.279V252.336C251.342 254.31 252.046 255.987 253.425 257.34C254.805 258.693 256.455 259.369 258.376 259.369C260.35 259.369 262.028 258.693 263.38 257.34C264.733 255.987 265.409 254.31 265.409 252.336V220.279ZM201.702 232.804C201.702 230.397 202.162 228.124 203.082 225.987C204.002 223.85 205.273 221.984 206.869 220.388C208.492 218.764 210.359 217.52 212.523 216.6C214.687 215.681 216.96 215.221 219.394 215.221C223.344 215.221 226.86 216.384 229.944 218.737C231.405 219.847 232.677 221.145 233.732 222.633C234.787 224.148 235.625 225.798 236.193 227.637C236.626 229.017 236.518 230.37 235.869 231.641C235.219 232.912 234.137 233.778 232.677 234.211C231.216 234.644 229.836 234.536 228.565 233.886C227.293 233.237 226.428 232.155 225.995 230.694C225.562 229.233 224.723 228.043 223.479 227.123C222.235 226.204 220.882 225.744 219.421 225.744C217.447 225.744 215.769 226.447 214.363 227.827C212.956 229.206 212.28 230.857 212.28 232.777V234.752C212.28 235.347 212.469 235.78 212.821 236.132C213.172 236.456 213.632 236.619 214.146 236.619H224.372C226.049 236.619 227.699 237.024 229.322 237.836C230.945 238.647 232.352 239.811 233.596 241.353C234.705 242.597 235.544 244.031 236.112 245.627C236.707 247.25 236.978 248.819 236.978 250.361V252.336C236.978 254.743 236.518 257.043 235.598 259.207C234.678 261.371 233.407 263.264 231.811 264.86C230.188 266.484 228.321 267.728 226.211 268.648C224.101 269.567 221.802 270.027 219.394 270.027C215.228 270.027 211.576 268.81 208.465 266.348C205.354 263.887 203.271 260.694 202.271 256.745C201.919 255.284 202.081 253.932 202.812 252.687C203.542 251.443 204.651 250.631 206.112 250.28C207.573 249.901 208.925 250.09 210.116 250.821C211.333 251.551 212.117 252.66 212.469 254.121C212.902 255.744 213.74 257.042 214.985 258.016C216.229 258.99 217.69 259.504 219.394 259.504C221.288 259.504 222.938 258.801 224.291 257.367C225.643 255.933 226.319 254.283 226.319 252.363V250.388C226.319 249.657 226.076 248.954 225.562 248.305C225.048 247.656 224.642 247.331 224.345 247.331H214.119C212.442 247.331 210.846 247.006 209.331 246.33C207.843 245.681 206.518 244.788 205.382 243.652C204.245 242.516 203.353 241.19 202.703 239.648C202.054 238.106 201.702 236.51 201.702 234.806V232.804ZM174.218 232.804C174.218 230.397 174.678 228.097 175.598 225.933C176.517 223.769 177.762 221.875 179.385 220.279C180.981 218.656 182.875 217.412 185.039 216.492C187.203 215.572 189.475 215.113 191.91 215.113C193.668 215.113 195.508 215.41 197.401 216.005C198.862 216.438 199.917 217.331 200.539 218.629C201.161 219.955 201.243 221.307 200.81 222.687C200.377 224.148 199.484 225.203 198.186 225.825C196.86 226.447 195.508 226.528 194.128 226.095C193.398 225.879 192.667 225.771 191.937 225.771C190.043 225.771 188.393 226.474 186.986 227.854C185.607 229.233 184.903 230.884 184.903 232.804V264.671C184.903 266.132 184.362 267.403 183.307 268.458C182.252 269.513 180.981 270.054 179.52 270.054C178.059 270.054 176.815 269.513 175.787 268.458C174.759 267.403 174.245 266.132 174.245 264.671V232.804H174.218ZM159.286 220.279C159.286 218.819 159.8 217.574 160.828 216.546C161.855 215.518 163.1 215.004 164.561 215.004C166.021 215.004 167.266 215.518 168.294 216.546C169.322 217.574 169.836 218.819 169.836 220.279V252.336C169.836 254.743 169.376 257.043 168.456 259.207C167.536 261.371 166.265 263.237 164.669 264.806C163.046 266.375 161.179 267.62 159.069 268.539C156.932 269.459 154.66 269.919 152.252 269.919C149.845 269.919 147.572 269.459 145.435 268.539C143.298 267.62 141.432 266.375 139.835 264.806C138.212 263.237 136.968 261.371 136.048 259.207C135.129 257.043 134.669 254.77 134.669 252.336V220.279C134.669 218.819 135.183 217.574 136.211 216.546C137.239 215.518 138.483 215.004 139.944 215.004C141.404 215.004 142.649 215.518 143.677 216.546C144.705 217.574 145.219 218.819 145.219 220.279V252.336C145.219 254.31 145.922 255.987 147.302 257.34C148.708 258.693 150.332 259.369 152.252 259.369C154.227 259.369 155.904 258.693 157.257 257.34C158.609 255.987 159.286 254.31 159.286 252.336V220.279ZM130.178 231.046C130.178 231.695 130.178 232.994 130.178 234.887C130.178 236.727 130.178 238.891 130.178 241.38C130.178 243.787 130.178 246.357 130.178 249.062C130.178 251.686 130.178 254.148 130.178 256.42C130.178 258.693 130.178 260.586 130.178 262.128C130.178 263.67 130.178 264.536 130.178 264.752C130.178 266.213 129.664 267.457 128.636 268.485C127.608 269.513 126.364 270.027 124.903 270.027C123.442 270.027 122.198 269.513 121.17 268.485C120.142 267.457 119.628 266.213 119.628 264.752C119.628 264.671 119.628 263.914 119.628 262.453C119.628 260.911 119.628 259.044 119.628 256.853C119.628 254.581 119.628 252.092 119.628 249.387C119.628 246.682 119.628 244.112 119.628 241.704C119.628 239.215 119.628 237.024 119.628 235.104C119.628 233.21 119.628 231.912 119.628 231.262C119.628 230.37 119.412 229.612 118.979 228.963C117.437 226.772 115.435 225.663 112.946 225.663C111.053 225.663 109.402 226.339 107.996 227.692C106.616 229.044 105.913 230.667 105.913 232.588V242.029C105.913 243.49 105.426 244.734 104.425 245.762C103.424 246.79 102.207 247.304 100.746 247.304H100.53C99.0687 247.304 97.8243 246.79 96.7964 245.762C95.7684 244.734 95.2544 243.49 95.2544 242.029V232.588C95.2544 230.694 94.5782 229.044 93.2256 227.692C91.873 226.339 90.2499 225.663 88.3292 225.663C87.166 225.663 86.0298 225.96 84.9207 226.528C83.8116 227.123 82.946 227.908 82.2697 228.936C82.0533 229.315 81.918 229.666 81.8369 230.045C81.7557 230.424 81.7016 230.802 81.6204 231.262C81.6204 231.912 81.6204 233.21 81.6204 235.104C81.6204 236.997 81.6204 239.215 81.6204 241.704C81.6204 244.112 81.6204 246.682 81.6204 249.387C81.6204 252.092 81.6204 254.581 81.6204 256.853C81.6204 259.044 81.6204 260.911 81.6204 262.453C81.6204 263.914 81.6204 264.698 81.6204 264.752C81.6204 266.213 81.1065 267.457 80.0785 268.485C79.0505 269.513 77.8062 270.027 76.3454 270.027C74.8846 270.027 73.6402 269.513 72.6123 268.485C71.5843 267.484 71.0703 266.24 71.0703 264.752C71.0703 264.536 71.0703 263.643 71.0703 262.128C71.0703 260.586 71.0703 258.693 71.0703 256.42C71.0703 254.148 71.0703 251.686 71.0703 249.062C71.0703 246.357 71.0703 243.787 71.0703 241.38C71.0703 238.891 71.0974 236.7 71.1244 234.833C71.1515 232.967 71.1785 231.695 71.1785 231.046C71.1785 228.178 71.936 225.554 73.4779 223.147C75.101 220.658 77.2381 218.683 79.9162 217.223C82.5943 215.762 85.3806 215.031 88.3292 215.031C90.6827 215.031 92.901 215.491 95.038 216.411C97.1751 217.331 99.0417 218.548 100.638 220.09C102.261 218.548 104.1 217.331 106.183 216.411C108.266 215.491 110.539 215.031 112.946 215.031C115.868 215.031 118.654 215.762 121.305 217.223C123.956 218.683 126.093 220.658 127.798 223.147C129.231 225.473 130.043 228.097 130.178 231.046Z" fill="#F9F9FA"/>
<path d="M284.887 219.224H284.129V217.899H284.941C285.221 217.899 285.437 217.912 285.57 217.92C285.63 217.923 285.673 217.926 285.698 217.926C285.887 217.98 286.023 218.034 286.104 218.142C286.185 218.25 286.239 218.386 286.239 218.575C286.239 218.71 286.212 218.846 286.131 218.954C286.05 219.062 285.969 219.116 285.833 219.17C285.698 219.197 285.401 219.224 284.887 219.224Z" fill="#F9F9FA"/>
<path fill-rule="evenodd" clip-rule="evenodd" d="M290 219.63C290 217.06 287.917 214.977 285.347 214.977C282.777 214.977 280.694 217.06 280.694 219.63C280.694 222.2 282.777 224.283 285.347 224.283C287.917 224.283 290 222.2 290 219.63ZM283.047 217.033V222.281H284.075V220.09H284.291C284.535 220.09 284.724 220.09 284.832 220.144C284.941 220.171 285.049 220.252 285.157 220.361C285.265 220.469 285.455 220.712 285.725 221.118L286.483 222.254H287.754L287.105 221.226C286.861 220.82 286.672 220.55 286.51 220.388C286.347 220.225 286.158 220.09 285.942 219.955C286.401 219.874 286.753 219.711 286.97 219.468C287.213 219.197 287.321 218.9 287.321 218.494C287.321 218.169 287.24 217.899 287.078 217.655C286.942 217.439 286.726 217.25 286.483 217.168C286.239 217.087 285.833 217.033 285.265 217.033H283.047Z" fill="#F9F9FA"/>
<path fill-rule="evenodd" clip-rule="evenodd" d="M158.797 74.2548C159.149 74.363 160.474 73.9843 161.151 73.0645C161.827 72.1448 161.962 70.7381 161.8 70.0618C161.611 69.4125 161.529 69.6019 161.367 70.197C161.205 70.7922 160.934 71.766 160.312 72.6046C159.663 73.4432 158.445 74.1466 158.797 74.2548ZM155.713 68.4928C156.092 69.1691 157.012 69.3584 157.742 68.9256C157.959 68.8174 158.121 68.6551 158.229 68.4657C158.148 69.629 157.526 70.7381 156.471 71.3062C154.793 72.1989 152.656 71.5226 151.71 69.7372C150.763 67.9788 151.358 65.8147 153.035 64.8949C154.685 64.0022 156.795 64.6785 157.769 66.3828C157.336 66.1934 156.795 66.2205 156.335 66.4639C155.605 66.9238 155.335 67.8165 155.713 68.4928ZM133.801 59.7551C133.937 59.5658 135.316 58.8083 137.075 58.3484C138.481 57.9697 140.159 57.8074 141.295 57.8074C141.349 57.4287 141.43 57.077 141.538 56.7253C142.025 55.0211 143.053 53.8308 144.135 52.9652C145.217 52.0995 146.326 51.5585 147.706 51.288C149.086 51.0175 150.736 51.0175 151.764 51.1798C152.792 51.3421 153.197 51.6667 153.549 52.1266C153.901 52.5865 154.225 53.1816 154.523 53.9661C154.821 54.7506 155.091 55.6974 155.47 56.5901C155.821 57.4828 156.254 58.2943 156.741 59.0518C157.228 59.8092 157.742 60.5396 159.69 62.7038C161.638 64.8679 164.992 68.4657 166.967 71.4414C168.941 74.39 169.483 76.6894 169.645 79.2593C170.646 95.5985 149.924 113.398 161.394 132.335C162.638 134.391 164.207 136.257 165.831 137.745C167.454 139.233 169.104 140.315 171.268 141.18C173.405 142.019 176.029 142.614 178.572 143.209C181.115 143.804 183.603 144.427 186.741 145.292C189.879 146.158 193.667 147.294 196.588 148.403C199.537 149.512 201.62 150.594 203.757 152.272C205.894 153.949 208.085 156.248 209.627 157.898C211.196 159.521 212.143 160.495 212.711 161.063C213.279 161.631 213.441 161.794 213.874 161.794C214.28 161.767 214.956 161.577 216.309 161.28C217.661 160.982 219.69 160.603 221.611 160.252C223.532 159.9 225.371 159.63 226.724 159.792C228.076 159.981 228.915 160.658 229.402 161.415C229.889 162.172 230.051 163.038 230.349 163.796C230.646 164.553 231.079 165.256 231.566 165.716C232.053 166.176 232.594 166.42 232.378 166.582C232.161 166.744 231.214 166.798 229.862 166.798C228.536 166.798 226.832 166.717 225.182 166.338C223.532 165.987 221.936 165.31 220.935 165.013C219.961 164.688 219.582 164.742 219.312 164.959C219.041 165.202 218.879 165.635 219.312 166.095C219.717 166.555 220.691 167.069 221.881 167.502C223.072 167.962 224.424 168.367 225.885 168.476C227.346 168.584 228.888 168.421 232.053 168.394C235.218 168.367 239.979 168.476 243.036 168.611C246.093 168.746 247.445 168.935 248.446 169.395C249.474 169.855 250.204 170.586 250.556 171.559C250.908 172.533 250.908 173.724 250.827 174.697C250.746 175.671 250.583 176.402 249.609 177.159C248.636 177.917 246.823 178.728 243.929 179.242C241.034 179.729 237.084 179.918 233.568 179.864C230.051 179.81 226.994 179.486 224.668 179.188C222.341 178.89 220.772 178.566 219.42 178.268C218.067 177.971 216.931 177.727 216.282 177.619C215.633 177.538 215.497 177.619 214.713 177.944C213.901 178.268 212.44 178.782 209.789 179.513C207.111 180.243 203.243 181.19 199.618 181.893C195.993 182.624 192.639 183.137 188.608 183.706C184.577 184.274 179.87 184.923 176.191 185.464C172.512 186.005 169.861 186.465 168.103 186.762C166.317 187.087 165.425 187.249 164.397 186.654C163.369 186.059 162.233 184.679 161.259 183.651C160.258 182.624 159.419 181.92 158.581 181.677C157.742 181.433 156.904 181.677 156.444 181.812C155.984 181.947 155.903 182.001 156.254 182.272C156.606 182.542 157.39 183.056 158.689 184.138C159.987 185.193 161.8 186.816 163.261 188.331C164.721 189.846 165.749 191.226 166.345 192.281C166.94 193.336 167.048 194.093 166.994 194.716C166.94 195.338 166.777 195.852 165.479 196.528C164.18 197.204 161.773 198.043 159.095 198.611C156.444 199.152 153.522 199.423 151.006 199.233C148.463 199.044 146.326 198.368 144.649 197.529C142.972 196.69 141.755 195.689 141.051 194.445C140.348 193.201 140.132 191.713 140.104 190.82C140.05 189.9 140.159 189.576 140.159 189.413C140.132 189.251 139.969 189.278 138.833 189.062C137.697 188.845 135.56 188.385 133.45 187.493C131.34 186.6 129.257 185.275 127.58 183.516C125.902 181.758 124.658 179.567 123.711 177.944C122.764 176.32 122.142 175.293 121.655 174.833C121.168 174.346 120.79 174.427 120.465 174.562C120.14 174.697 119.897 174.914 120.654 176.266C121.412 177.619 123.143 180.135 124.063 181.406C124.983 182.705 125.091 182.786 123.874 182.732C122.656 182.705 120.113 182.542 116.705 182.164C113.296 181.785 108.995 181.19 105.695 180.351C102.395 179.513 100.122 178.431 98.6614 177.294C97.2006 176.185 96.5784 175.022 96.2809 174.183C95.9833 173.345 95.9833 172.858 96.3079 172.155C96.6325 171.424 97.2818 170.504 98.445 169.936C99.6082 169.368 101.258 169.179 103.747 169.179C106.263 169.152 109.644 169.314 112.052 169.531C114.46 169.747 115.92 170.017 116.813 170.099C117.706 170.18 118.057 170.099 118.084 169.828C118.112 169.558 117.841 169.125 117.408 168.178C116.975 167.231 116.434 165.824 115.596 162.714C114.784 159.603 113.675 154.814 113.161 150.216C112.647 145.617 112.701 141.235 112.972 136.663C113.242 132.091 113.702 127.33 114.568 123.218C115.433 119.106 116.678 115.644 118.517 111.586C120.357 107.501 122.791 102.821 125.28 98.3037C127.796 93.8131 130.366 89.5119 132.368 86.2928C134.37 83.0736 135.776 80.9365 137.048 78.1773C138.346 75.4451 139.509 72.1177 140.186 69.4667C140.835 66.8156 140.97 64.8679 141.024 62.7579C141.024 62.4873 141.024 62.2439 141.051 61.9734C140.943 62.0545 140.808 62.1357 140.646 62.2168C140.023 62.5685 139.049 63.0013 138.103 63.5694C137.183 64.1375 136.29 64.8679 135.425 65.7065C134.559 66.5721 133.666 67.573 133.747 67.3025C133.829 67.0591 134.856 65.5442 136.29 64.1375C137.724 62.7308 139.563 61.4594 140.537 60.9995C140.754 60.8913 140.943 60.8372 141.078 60.8101C141.078 60.6749 141.078 60.5396 141.105 60.4044C140.997 60.4314 140.916 60.4855 140.781 60.5126C140.132 60.729 139.077 60.9454 138.103 61.2971C137.102 61.6487 136.155 62.1627 135.181 62.812C134.207 63.4612 133.233 64.2186 133.315 63.9752C133.423 63.7317 134.586 62.5144 136.182 61.4594C137.751 60.4044 139.753 59.5387 140.781 59.3223C140.916 59.2952 141.051 59.2682 141.159 59.2682C141.159 59.16 141.187 59.0247 141.187 58.9165C140.564 58.8624 139.807 58.8083 139.049 58.8083C137.994 58.8083 136.939 58.9706 135.884 59.2411C134.802 59.5387 133.666 59.9445 133.801 59.7551Z" fill="#F9F9FA"/>
</svg>
