<svg width="16" height="17" viewBox="0 0 16 17" fill="none" xmlns="http://www.w3.org/2000/svg">
<path d="M8.74148 6.53243H7.24494V5.0144C7.24494 4.81748 7.08383 4.65637 6.88691 4.65637C6.69 4.65637 6.52889 4.81748 6.52889 5.0144V6.53243H5.01086C4.81394 6.53243 4.65283 6.69354 4.65283 6.89045C4.65283 7.08736 4.81394 7.24848 5.01086 7.24848H6.52889V8.7486C6.52889 8.94552 6.69 9.10663 6.88691 9.10663C7.08383 9.10663 7.24494 8.94552 7.24494 8.7486V7.24848H8.74148C8.9384 7.24848 9.09951 7.08736 9.09951 6.89045C9.09951 6.69354 8.94198 6.53243 8.74148 6.53243Z" fill="#52575C"/>
<path d="M10.7071 3.02384C8.58755 0.907907 5.13977 0.907907 3.02384 3.02384C0.907907 5.13977 0.907907 8.58755 3.02384 10.7071C5.14693 12.823 8.58397 12.823 10.7071 10.7071C12.823 8.59114 12.823 5.14335 10.7071 3.02384ZM10.1987 10.2022C8.35842 12.0389 5.36532 12.0425 3.52865 10.2022C1.6884 8.362 1.6884 5.3689 3.52865 3.53223C5.37248 1.69556 8.35484 1.69556 10.1987 3.53223C12.0389 5.3689 12.0389 8.362 10.1987 10.2022Z" fill="#52575C"/>
<path d="M15.6191 13.7538C15.6155 13.7502 15.612 13.7466 15.6084 13.7431L12.5652 10.6927C14.6775 7.54565 13.8397 3.27798 10.6927 1.16563C7.54565 -0.946718 3.27798 -0.108939 1.16563 3.03811C-0.946718 6.18515 -0.108939 10.4528 3.03811 12.5652C4.03342 13.2347 5.18626 13.6285 6.38206 13.7144C6.54318 13.7252 6.70429 13.7323 6.86182 13.7323C8.22589 13.7323 9.55775 13.3278 10.6891 12.5687L13.7323 15.612C14.2479 16.1347 15.0857 16.1383 15.6048 15.6263C16.1275 15.1107 16.1311 14.2729 15.6191 13.7538ZM10.5173 11.8133C7.78194 13.8362 3.92959 13.2562 1.91033 10.5244C-0.108939 7.79268 0.467482 3.93675 3.2028 1.91749C5.93811 -0.101778 9.79047 0.474643 11.8097 3.20996C13.4173 5.38675 13.4173 8.35836 11.8026 10.5352C11.441 11.0185 11.0078 11.4517 10.5173 11.8133ZM15.1036 15.1071C14.989 15.2217 14.835 15.2862 14.6704 15.2862C14.5092 15.2862 14.3553 15.2217 14.2407 15.1071L11.2691 12.1355C11.4231 12.0066 11.5734 11.8706 11.7202 11.7238C11.867 11.577 12.0031 11.4266 12.132 11.2727L15.1036 14.2443C15.3399 14.4806 15.3399 14.8673 15.1036 15.1071Z" fill="#52575C"/>
</svg>
