<svg width="32" height="32" viewBox="0 0 32 32" fill="none" xmlns="http://www.w3.org/2000/svg">
<path d="M19.5156 16.2344C19.1922 16.2344 18.9297 16.4969 18.9297 16.8203C18.9297 17.1437 19.1922 17.4062 19.5156 17.4062C19.839 17.4062 20.1016 17.1437 20.1016 16.8203C20.1016 16.4969 19.839 16.2344 19.5156 16.2344Z" fill="#1D5396"/>
<path d="M6.98637 22.6671L1.12699 30.0499C0.987144 30.2259 0.960594 30.4665 1.05833 30.6688C1.15606 30.8714 1.36114 31 1.5859 31H30.414C30.6388 31 30.8439 30.8714 30.9416 30.6688C31.0396 30.4665 31.0128 30.2259 30.8729 30.0499L25.0136 22.6671C24.9025 22.527 24.7334 22.4453 24.5546 22.4453H19.422L23.8039 15.5724C24.8318 14.0314 25.375 12.2342 25.375 10.375C25.375 5.2057 21.1695 1 16 1C10.8304 1 6.62496 5.2057 6.62496 10.375C6.62496 12.2342 7.1681 14.0312 8.19601 15.5724L12.5779 22.4453H7.44527C7.26652 22.4453 7.0976 22.527 6.98637 22.6671ZM4.79871 27.3086H8.34157L6.34206 29.8281H2.79897L4.79871 27.3086ZM13.3252 23.6172L14.9315 26.1367H10.7677L12.7675 23.6172H13.3252ZM18.6749 23.6172H19.2327L21.2322 26.1367H17.0686L18.6749 23.6172ZM22.1624 27.3086L24.1619 29.8281H7.83803L9.83778 27.3086H22.1624ZM25.6581 29.8281L23.6583 27.3086H27.2014L29.2009 29.8281H25.6581ZM26.2713 26.1367H22.7284L20.7287 23.6172H24.2717L26.2713 26.1367ZM9.17425 14.927C8.27314 13.578 7.79684 12.004 7.79684 10.375C7.79684 5.85184 11.4768 2.17188 16 2.17188C20.5231 2.17188 24.2031 5.85184 24.2031 10.375C24.2031 12.004 23.7268 13.578 22.8259 14.927C22.8234 14.9304 22.8213 14.9339 22.819 14.9373C22.4343 15.5409 16.2964 25.1681 16 25.6327C15.2545 24.4634 9.94008 16.1279 9.18088 14.9373C9.17882 14.9339 9.17654 14.9304 9.17425 14.927ZM11.2713 23.6172L9.27175 26.1367H5.72866L7.7284 23.6172H11.2713Z" fill="#1D5396"/>
<path d="M16 16.2344C19.2167 16.2344 21.8594 13.6295 21.8594 10.375C21.8594 7.1441 19.2309 4.51562 16 4.51562C12.7691 4.51562 10.1406 7.1441 10.1406 10.375C10.1406 13.6304 12.7842 16.2344 16 16.2344ZM16 5.6875C18.5848 5.6875 20.6875 7.79024 20.6875 10.375C20.6875 12.9838 18.5678 15.0625 16 15.0625C13.4315 15.0625 11.3125 12.9838 11.3125 10.375C11.3125 7.79024 13.4152 5.6875 16 5.6875Z" fill="#1D5396"/>
<path d="M18.4682 18.2339C18.1913 18.0668 17.831 18.1561 17.664 18.4332L15.4983 22.0262C15.3312 22.3034 15.4205 22.6634 15.6976 22.8305C15.976 22.9983 16.3355 22.9072 16.5019 22.6312L18.6676 19.0382C18.8347 18.761 18.7454 18.401 18.4682 18.2339Z" fill="#1D5396"/>
</svg>
