<svg width="32" height="32" viewBox="0 0 32 32" fill="none" xmlns="http://www.w3.org/2000/svg">
<path d="M18.0019 2.49994H13.0019C12.726 2.49994 12.502 2.72394 12.502 2.99992C12.502 3.2759 12.726 3.4999 13.0019 3.4999H18.0019C18.2779 3.4999 18.5019 3.2759 18.5019 2.99992C18.5019 2.72394 18.2779 2.49994 18.0019 2.49994Z" fill="#1D5396"/>
<path d="M21.4961 2.49994H20.9961C20.7201 2.49994 20.4961 2.72394 20.4961 2.99992C20.4961 3.2759 20.7201 3.4999 20.9961 3.4999H21.4961C21.772 3.4999 21.996 3.2759 21.996 2.99992C21.996 2.72394 21.772 2.49994 21.4961 2.49994Z" fill="#1D5396"/>
<path d="M16.121 26.5001H14.8795C14.119 26.5001 13.5 27.119 13.5 27.8795V28.1211C13.5 28.8815 14.119 29.5001 14.879 29.5001H16.1205C16.881 29.5001 17.5 28.8815 17.5 28.1211V27.8795C17.5 27.119 16.881 26.5001 16.121 26.5001ZM16.5 28.1211C16.5 28.3301 16.33 28.5 16.121 28.5H14.8795C14.67 28.5 14.5 28.3301 14.5 28.1211V27.8795C14.5 27.6701 14.6699 27.5 14.8795 27.5H16.1205C16.33 27.5 16.5 27.67 16.5 27.8795V28.1211Z" fill="#1D5396"/>
<path d="M22.193 1H8.8075C7.811 1 7 1.811 7 2.8075V29.1925C7 30.189 7.811 31 8.8075 31H22.1925C23.189 31 24 30.189 24 29.193V2.8075C24 1.811 23.189 1 22.193 1ZM23 29.1925C23 29.6375 22.638 30 22.193 30H8.8075C8.36201 30 8.00002 29.6375 8.00002 29.193V2.8075C8.00002 2.36248 8.36201 2.00002 8.8075 2.00002H22.1925C22.638 2.00002 23 2.36254 23 2.8075V29.1925H23Z" fill="#1D5396"/>
<path d="M23.4999 4.00006H7.49998C7.224 4.00006 7 4.22406 7 4.50004V25.5C7 25.776 7.224 26 7.49998 26H23.5C23.776 26 24 25.776 24 25.5V4.50004C24 4.22406 23.776 4.00006 23.4999 4.00006ZM23 25.0001H7.99996V5.00008H23V25.0001Z" fill="#1D5396"/>
</svg>
