<svg width="32" height="32" viewBox="0 0 32 32" fill="none" xmlns="http://www.w3.org/2000/svg">
<path d="M29.0725 12.2602L27.1432 10.33V6.50518C27.1432 5.2127 26.0916 4.16118 24.7992 4.16118H20.9784L17.9914 1.1724C17.8815 1.06253 17.7325 1.0007 17.5771 1.00064L15.3941 1C15.394 1 15.394 1 15.3939 1C15.2386 1 15.0895 1.06171 14.9797 1.17152L11.9881 4.16124H8.15675C6.86426 4.16124 5.81274 5.21276 5.81274 6.50524V10.3362L3.88468 12.2598C3.31421 12.8299 3 13.5882 3 14.3948V27.9815C3 28.7946 3.32371 29.533 3.84829 30.0763C3.8596 30.0898 3.87138 30.1031 3.8841 30.1159C3.89676 30.1286 3.91 30.1402 3.92348 30.1515C4.46676 30.6762 5.2053 31 6.01849 31H13.841C14.1647 31 14.427 30.7376 14.427 30.414C14.427 30.0904 14.1647 29.828 13.841 29.828H6.01843C5.72268 29.828 5.44321 29.7577 5.1951 29.6336L12.1022 22.7264L14.3509 24.9738C14.921 25.5436 15.6787 25.8573 16.4846 25.8573H16.4856C17.2918 25.857 18.0497 25.5428 18.6197 24.9725L20.859 22.7318L27.7608 29.6336C27.5128 29.7577 27.2332 29.828 26.9375 29.828H19.115C18.7914 29.828 18.529 30.0904 18.529 30.414C18.529 30.7376 18.7914 31 19.115 31H26.9376C27.7507 31 28.4892 30.6762 29.0325 30.1516C29.046 30.1403 29.0593 30.1286 29.072 30.1159C29.0848 30.1031 29.0965 30.0898 29.1078 30.0762C29.6324 29.5329 29.9561 28.7945 29.9561 27.9815V14.3939C29.956 13.5881 29.6423 12.8303 29.0725 12.2602ZM27.1432 11.9878L28.2436 13.0887C28.3452 13.1903 28.433 13.302 28.5071 13.4211L27.1432 14.7859V11.9878ZM15.6365 2.17206L17.334 2.17265L19.3214 4.16124H13.646L15.6365 2.17206ZM4.71282 13.0891L5.8128 11.9917V14.784L4.44924 13.4213C4.52337 13.3023 4.61127 13.1906 4.71282 13.0891ZM4.36638 28.8048C4.24226 28.5568 4.172 28.2773 4.172 27.9816V14.8011L11.2733 21.8979L4.36638 28.8048ZM17.7908 24.1441C17.4421 24.4929 16.9785 24.6851 16.4853 24.6853C16.4851 24.6853 16.4849 24.6853 16.4848 24.6853C15.9917 24.6853 15.5282 24.4933 15.1795 24.1448L6.9848 15.9552V6.50518C6.9848 5.85894 7.51056 5.33318 8.1568 5.33318H24.7992C25.4455 5.33318 25.9712 5.85894 25.9712 6.50518V10.4978C25.9657 10.5444 25.9657 10.5914 25.9712 10.638V15.9585L17.7908 24.1441ZM28.784 27.9816C28.784 28.2773 28.7138 28.5568 28.5896 28.8048L21.6876 21.9028L28.784 14.8021V27.9816Z" fill="#1D5396"/>
<path d="M16.4786 29.8279C16.3245 29.8279 16.1733 29.8906 16.0643 29.9996C15.9553 30.1086 15.8926 30.2598 15.8926 30.4139C15.8926 30.568 15.9553 30.7192 16.0643 30.8282C16.1733 30.9378 16.3245 30.9999 16.4786 30.9999C16.6327 30.9999 16.7839 30.9378 16.8929 30.8282C17.0019 30.7192 17.0646 30.568 17.0646 30.4139C17.0646 30.2598 17.0019 30.1086 16.8929 29.9996C16.7839 29.8906 16.6327 29.8279 16.4786 29.8279Z" fill="#1D5396"/>
<path d="M16.4821 7.79071C13.4312 7.79071 10.9492 10.2727 10.9492 13.3235C10.9492 16.4161 13.4652 18.932 16.5578 18.932H20.1194C20.4431 18.932 20.7054 18.6696 20.7054 18.346C20.7054 18.0225 20.4431 17.76 20.1194 17.76H16.5578C14.1115 17.76 12.1212 15.7698 12.1212 13.3235C12.1212 10.919 14.0775 8.96271 16.4821 8.96271C18.8867 8.96271 20.8429 10.919 20.8429 13.3235V14.5244C20.8429 14.9859 20.4674 15.3614 20.0059 15.3614C19.5443 15.3614 19.1688 14.9859 19.1688 14.5244V13.168C19.1688 11.5636 17.8636 10.2583 16.2591 10.2583C14.5721 10.2583 13.1996 11.6308 13.1996 13.3179C13.1996 15.005 14.5721 16.3775 16.2591 16.3775H17.1914C17.515 16.3775 17.7774 16.1151 17.7774 15.7915C17.7774 15.4679 17.515 15.2055 17.1914 15.2055H16.2591C15.2184 15.2055 14.3716 14.3587 14.3716 13.3179C14.3716 12.2771 15.2184 11.4303 16.2591 11.4303C17.2173 11.4303 17.9968 12.2099 17.9968 13.168V14.5244C17.9968 15.6322 18.898 16.5334 20.0059 16.5334C21.1137 16.5334 22.0149 15.6322 22.0149 14.5244V13.3235C22.0148 10.2727 19.5328 7.79071 16.4821 7.79071Z" fill="#1D5396"/>
</svg>
