<svg width="20" height="21" viewBox="0 0 20 21" fill="none" xmlns="http://www.w3.org/2000/svg">
<path d="M1.30459 2.38491C-0.262557 4.01272 0.0581852 5.7419 0.0581852 10.9951C0.0581852 15.3575 -0.702955 19.7308 3.28057 20.7603C4.52448 21.0802 15.5461 21.0802 16.7883 20.7586C18.4469 20.3307 19.7963 18.9854 19.9808 16.6397C20.0065 16.3123 20.0065 5.68373 19.98 5.3497C19.7839 2.85106 18.2458 1.41105 16.2191 1.11939C15.7546 1.05208 15.6616 1.03214 13.2784 1.02798C4.82528 1.03214 2.97229 0.655722 1.30459 2.38491Z" fill="#5181B8"/>
<path d="M16.0315 14.1579C15.9948 14.0968 15.7678 13.6062 14.6755 12.5979C13.532 11.5421 13.6856 11.7135 15.0629 9.88785C15.9018 8.77599 16.2371 8.09699 16.1322 7.80671C16.0323 7.53002 15.4154 7.60301 15.4154 7.60301L13.3639 7.6149C13.3639 7.6149 13.212 7.59453 13.0985 7.66158C12.9884 7.72778 12.9176 7.88055 12.9176 7.88055C12.9176 7.88055 12.5924 8.74119 12.1589 9.47281C11.245 11.0167 10.8789 11.0982 10.7295 11.0023C10.3822 10.779 10.4693 10.1043 10.4693 9.62558C10.4693 8.12924 10.6971 7.50541 10.0247 7.34414C9.80108 7.29067 9.63723 7.25503 9.06633 7.24908C8.33415 7.24145 7.71375 7.25163 7.36302 7.42223C7.1292 7.53596 6.94914 7.78974 7.05922 7.80417C7.19491 7.82199 7.50212 7.8865 7.66511 8.10717C7.87589 8.3915 7.86821 9.03146 7.86821 9.03146C7.86821 9.03146 7.98939 10.7926 7.58575 11.0116C7.3084 11.1618 6.92866 10.8554 6.11369 9.45414C5.6964 8.73694 5.38066 7.94336 5.38066 7.94336C5.38066 7.94336 5.32007 7.79568 5.21169 7.71675C5.08027 7.62084 4.89595 7.59028 4.89595 7.59028L2.94516 7.60216C2.94516 7.60216 2.65246 7.61065 2.54493 7.73712C2.44935 7.85 2.53725 8.08256 2.53725 8.08256C2.53725 8.08256 4.06477 11.6363 5.79368 13.428C7.38009 15.0703 9.18068 14.9625 9.18068 14.9625H9.9965C9.9965 14.9625 10.2431 14.9354 10.3686 14.8004C10.4846 14.6765 10.4804 14.4439 10.4804 14.4439C10.4804 14.4439 10.4641 13.355 10.9727 13.1946C11.4737 13.0367 12.1171 14.247 12.7989 14.713C13.3144 15.0652 13.7061 14.988 13.7061 14.988L15.5297 14.9625C15.5297 14.9625 16.4838 14.904 16.0315 14.1579Z" fill="white"/>
</svg>
