<svg width="20" height="21" viewBox="0 0 20 21" fill="none" xmlns="http://www.w3.org/2000/svg">
<path d="M1.30459 2.38491C-0.262557 4.01272 0.0581852 5.7419 0.0581852 10.9951C0.0581852 15.3575 -0.702955 19.7308 3.28057 20.7603C4.52448 21.0802 15.5461 21.0802 16.7883 20.7586C18.4469 20.3307 19.7963 18.9854 19.9808 16.6397C20.0065 16.3123 20.0065 5.68373 19.98 5.3497C19.7838 2.85106 18.2458 1.41105 16.2191 1.11939C15.7546 1.05208 15.6616 1.03214 13.2784 1.02798C4.82528 1.03214 2.97229 0.655722 1.30459 2.38491Z" fill="url(#paint0_linear)"/>
<path d="M10.0272 3.63626C7.01003 3.63626 4.14495 3.36786 3.0506 6.17644C2.59857 7.33643 2.66421 8.84292 2.66421 11C2.66421 12.8929 2.60356 14.672 3.0506 15.8228C4.14245 18.633 7.0308 18.3638 10.0255 18.3638C12.9147 18.3638 15.8936 18.6646 17.0012 15.8228C17.4541 14.6512 17.3876 13.1671 17.3876 11C17.3876 8.12333 17.5463 6.26618 16.1512 4.87186C14.7386 3.45927 12.8283 3.63626 10.0238 3.63626H10.0272ZM9.3674 4.96327C15.6609 4.9533 16.462 4.25365 16.0199 13.9731C15.8629 17.4107 13.2454 17.0335 10.028 17.0335C4.16157 17.0335 3.99289 16.8656 3.99289 10.9967C3.99289 5.05966 4.45821 4.96659 9.3674 4.9616V4.96327ZM13.9575 6.18558C13.4697 6.18558 13.0742 6.58111 13.0742 7.06887C13.0742 7.55663 13.4697 7.95216 13.9575 7.95216C14.4453 7.95216 14.8408 7.55663 14.8408 7.06887C14.8408 6.58111 14.4453 6.18558 13.9575 6.18558ZM10.0272 7.21844C7.93902 7.21844 6.24639 8.91189 6.24639 11C6.24639 13.0882 7.93902 14.7808 10.0272 14.7808C12.1153 14.7808 13.8071 13.0882 13.8071 11C13.8071 8.91189 12.1153 7.21844 10.0272 7.21844ZM10.0272 8.54545C13.272 8.54545 13.2761 13.4546 10.0272 13.4546C6.78318 13.4546 6.77819 8.54545 10.0272 8.54545Z" fill="white"/>
<defs>
<linearGradient id="paint0_linear" x1="1.34283" y1="19.6968" x2="19.8773" y2="3.65539" gradientUnits="userSpaceOnUse">
<stop stop-color="#FFDD55"/>
<stop offset="0.5" stop-color="#FF543E"/>
<stop offset="1" stop-color="#C837AB"/>
</linearGradient>
</defs>
</svg>
