<svg width="20" height="21" viewBox="0 0 20 21" fill="none" xmlns="http://www.w3.org/2000/svg">
<path d="M1.30459 2.38491C-0.262557 4.01272 0.0581852 5.7419 0.0581852 10.9951C0.0581852 15.3575 -0.702955 19.7308 3.28057 20.7603C4.52448 21.0802 15.5461 21.0802 16.7883 20.7586C18.4469 20.3307 19.7963 18.9854 19.9808 16.6397C20.0065 16.3123 20.0065 5.68373 19.98 5.3497C19.7839 2.85106 18.2458 1.41105 16.2191 1.11939C15.7546 1.05208 15.6616 1.03214 13.2784 1.02798C4.82528 1.03214 2.97229 0.655722 1.30459 2.38491Z" fill="#5181B8"/>
<path d="M12.8131 8.15001C12.9858 8.15001 13.1257 8.00235 13.1257 7.82036V5.70172C13.1257 5.51964 12.9858 5.37207 12.8131 5.37207H10.4689C9.37334 5.37207 8.48191 6.31193 8.48191 7.46718V9.60925H7.18715C7.01447 9.60925 6.87451 9.75682 6.87451 9.9389V12.0574C6.87451 12.2395 7.01447 12.3871 7.18715 12.3871H8.48191V16.2946C8.48191 16.4767 8.62187 16.6243 8.79455 16.6243H10.8038C10.9765 16.6243 11.1165 16.4767 11.1165 16.2946V12.3871H12.4112C12.5603 12.3871 12.6886 12.2762 12.7178 12.1221L13.1196 10.0035C13.138 9.90671 13.1143 9.80627 13.0549 9.72986C12.9955 9.65354 12.9068 9.60925 12.8131 9.60925H11.1165V8.15001H12.8131Z" fill="white"/>
</svg>
