<svg width="21" height="22" viewBox="0 0 21 22" fill="none" xmlns="http://www.w3.org/2000/svg">
<path d="M1.55459 2.38686C-0.0125573 4.01467 0.308185 5.74385 0.308185 10.9971C0.308185 15.3595 -0.452955 19.7327 3.53057 20.7622C4.77448 21.0822 15.7961 21.0822 17.0383 20.7606C18.6969 20.3327 20.0463 18.9874 20.2308 16.6416C20.2565 16.3142 20.2565 5.68569 20.23 5.35165C20.0339 2.85302 18.4958 1.413 16.4691 1.12134C16.0046 1.05403 15.9116 1.03409 13.5284 1.02994C5.07528 1.03409 3.22229 0.657675 1.55459 2.38686Z" fill="#5181B8"/>
<path d="M13.0631 8.15184C13.2358 8.15184 13.3757 8.00418 13.3757 7.82219V5.70356C13.3757 5.52147 13.2358 5.3739 13.0631 5.3739H10.7188C9.62331 5.3739 8.73188 6.31376 8.73188 7.46901V9.61108H7.43712C7.26444 9.61108 7.12448 9.75865 7.12448 9.94073V12.0593C7.12448 12.2414 7.26444 12.3889 7.43712 12.3889H8.73188V16.2965C8.73188 16.4785 8.87184 16.6261 9.04452 16.6261H11.0538C11.2265 16.6261 11.3664 16.4785 11.3664 16.2965V12.3889H12.6612C12.8103 12.3889 12.9386 12.278 12.9678 12.1239L13.3696 10.0054C13.388 9.90854 13.3642 9.8081 13.3049 9.73169C13.2454 9.65538 13.1568 9.61108 13.0631 9.61108H11.3664V8.15184H13.0631Z" fill="white"/>
</svg>
