<svg width="24" height="21" viewBox="0 0 24 21" fill="none" xmlns="http://www.w3.org/2000/svg">
<path d="M6.70417 14.5595H7.46763H20.4845C20.799 14.5595 21.0761 14.3529 21.1659 14.0515L23.9704 4.63482C24.0345 4.41966 23.9932 4.18688 23.859 4.00688C23.7248 3.82688 23.5135 3.72085 23.289 3.72085H5.19325L4.23643 0.508032C4.14666 0.206625 3.86949 5.17624e-09 3.55496 5.17624e-09H0.711048C0.318376 -4.68699e-05 0 0.318282 0 0.711001C0 1.10367 0.318376 1.42205 0.711048 1.42205H3.02485L3.97712 4.61945C3.98002 4.62999 3.98307 4.64045 3.98645 4.65076L6.51611 13.1446C5.07217 13.2417 3.92687 14.4467 3.92687 15.9148C3.92687 17.4463 5.17276 18.6921 6.70412 18.6921H7.41002C7.7185 19.7498 8.69613 20.5251 9.85207 20.5251C11.008 20.5251 11.9856 19.7498 12.2941 18.6921H16.0667C16.3752 19.7498 17.3528 20.5251 18.5088 20.5251C19.6647 20.5251 20.6423 19.7498 20.9508 18.6921H21.8669C22.2596 18.6921 22.578 18.3738 22.578 17.9811C22.578 17.5884 22.2596 17.2701 21.8669 17.2701H20.9508C20.6423 16.2124 19.6647 15.4371 18.5088 15.4371C17.3528 15.4371 16.3752 16.2124 16.0667 17.2701H12.2941C11.9856 16.2124 11.008 15.4371 9.85207 15.4371C8.69613 15.4371 7.71845 16.2124 7.41002 17.2701H6.70412C5.95684 17.2701 5.34892 16.6621 5.34892 15.9148C5.34892 15.1675 5.95689 14.5595 6.70417 14.5595ZM17.135 5.14285H22.3354L21.3566 8.42913H17.135V5.14285ZM17.135 9.85122H20.9331L19.9544 13.1375H17.135V9.85122ZM11.8736 5.14285H15.713V8.42913H11.8736V5.14285ZM11.8736 9.85122H15.7129V13.1375H11.8736V9.85122ZM10.4516 13.1375H7.99778L7.01908 9.85122H10.4516V13.1375ZM5.61686 5.14285H10.4516V8.42913H6.59556L5.61686 5.14285ZM18.5088 16.8592C19.1274 16.8592 19.6307 17.3624 19.6307 17.9811C19.6307 18.5997 19.1274 19.1029 18.5088 19.1029C17.8902 19.1029 17.387 18.5997 17.387 17.9811C17.387 17.3624 17.8902 16.8592 18.5088 16.8592ZM9.85211 16.8592C10.4707 16.8592 10.974 17.3624 10.974 17.9811C10.974 18.5997 10.4707 19.1029 9.85211 19.1029C9.2335 19.1029 8.73025 18.5997 8.73025 17.9811C8.73025 17.3624 9.2335 16.8592 9.85211 16.8592Z" fill="#1D5396"/>
</svg>
