<svg width="21" height="22" viewBox="0 0 21 22" fill="none" xmlns="http://www.w3.org/2000/svg">
<path d="M1.55459 2.38686C-0.0125572 4.01467 0.308185 5.74385 0.308185 10.9971C0.308185 15.3595 -0.452955 19.7327 3.53057 20.7622C4.77448 21.0822 15.7961 21.0822 17.0383 20.7606C18.6969 20.3327 20.0463 18.9874 20.2308 16.6416C20.2565 16.3142 20.2565 5.68569 20.23 5.35165C20.0338 2.85302 18.4958 1.413 16.4691 1.12134C16.0046 1.05403 15.9116 1.03409 13.5284 1.02994C5.07528 1.03409 3.22229 0.657675 1.55459 2.38686Z" fill="url(#paint0_linear)"/>
<path d="M10.2772 3.63827C7.26001 3.63827 4.39493 3.36988 3.30059 6.17845C2.84855 7.33844 2.9142 8.84494 2.9142 11.0021C2.9142 12.8949 2.85354 14.674 3.30059 15.8248C4.39244 18.6351 7.28078 18.3658 10.2755 18.3658C13.1647 18.3658 16.1436 18.6666 17.2512 15.8248C17.7041 14.6532 17.6376 13.1691 17.6376 11.0021C17.6376 8.12534 17.7963 6.26819 16.4012 4.87388C14.9886 3.46128 13.0782 3.63827 10.2738 3.63827H10.2772ZM9.61739 4.96528C15.9109 4.95531 16.7119 4.25566 16.2699 13.9752C16.1128 17.4128 13.4954 17.0355 10.278 17.0355C4.41155 17.0355 4.24287 16.8677 4.24287 10.9987C4.24287 5.06167 4.7082 4.9686 9.61739 4.96362V4.96528ZM14.2075 6.18759C13.7197 6.18759 13.3242 6.58312 13.3242 7.07088C13.3242 7.55864 13.7197 7.95417 14.2075 7.95417C14.6953 7.95417 15.0908 7.55864 15.0908 7.07088C15.0908 6.58312 14.6953 6.18759 14.2075 6.18759ZM10.2772 7.22045C8.189 7.22045 6.49638 8.9139 6.49638 11.0021C6.49638 13.0902 8.189 14.7828 10.2772 14.7828C12.3653 14.7828 14.0571 13.0902 14.0571 11.0021C14.0571 8.9139 12.3653 7.22045 10.2772 7.22045ZM10.2772 8.54746C13.522 8.54746 13.5261 13.4566 10.2772 13.4566C7.03316 13.4566 7.02818 8.54746 10.2772 8.54746Z" fill="white"/>
<defs>
<linearGradient id="paint0_linear" x1="1.59283" y1="19.6987" x2="20.1273" y2="3.65734" gradientUnits="userSpaceOnUse">
<stop stop-color="#FFDD55"/>
<stop offset="0.5" stop-color="#FF543E"/>
<stop offset="1" stop-color="#C837AB"/>
</linearGradient>
</defs>
</svg>
