<svg width="152" height="58" viewBox="0 0 152 58" fill="none" xmlns="http://www.w3.org/2000/svg">
<path d="M79.647 24.9583C79.647 24.3571 79.8598 23.8483 80.276 23.4275C80.6969 23.0066 81.2056 22.7985 81.8068 22.7985C82.408 22.7985 82.9167 23.0113 83.3376 23.4275C83.7584 23.8483 83.9665 24.3571 83.9665 24.9583V38.1064C83.9665 39.0961 83.7769 40.0349 83.4023 40.9228C83.0277 41.8108 82.5098 42.5739 81.8484 43.2213C81.1871 43.8642 80.424 44.3775 79.5499 44.7521C78.6805 45.1267 77.7463 45.3163 76.7566 45.3163C75.7669 45.3163 74.8327 45.1313 73.9632 44.7521C73.0938 44.3775 72.3261 43.8642 71.6694 43.2213C71.0081 42.5739 70.4901 41.8108 70.1155 40.9228C69.7409 40.0349 69.5513 39.1007 69.5513 38.1064V24.9583C69.5513 24.3571 69.764 23.8483 70.1802 23.4275C70.6011 23.0066 71.1098 22.7985 71.711 22.7985C72.3122 22.7985 72.8209 23.0113 73.2418 23.4275C73.6626 23.8483 73.8708 24.3571 73.8708 24.9583V38.1064C73.8708 38.9157 74.1575 39.6002 74.7263 40.1551C75.2952 40.7101 75.9704 40.9876 76.752 40.9876C77.5613 40.9876 78.2458 40.7101 78.8007 40.1551C79.3557 39.6002 79.6332 38.9157 79.6332 38.1064V24.9583H79.647ZM53.5312 30.0917C53.5312 29.102 53.7208 28.1725 54.0954 27.2984C54.47 26.4289 54.988 25.6612 55.6493 24.9999C56.3107 24.3386 57.083 23.8206 57.9663 23.446C58.8543 23.0714 59.7885 22.8818 60.7828 22.8818C62.4014 22.8818 63.8444 23.3627 65.1023 24.3201C65.7035 24.7687 66.2215 25.3051 66.6562 25.9202C67.0909 26.5353 67.4285 27.2198 67.669 27.969C67.8494 28.5378 67.8031 29.0882 67.5349 29.6107C67.2666 30.138 66.8273 30.4894 66.2307 30.6698C65.6295 30.8502 65.0699 30.8039 64.5427 30.5357C64.0155 30.2675 63.664 29.8281 63.4836 29.2315C63.3033 28.6303 62.961 28.1447 62.4477 27.7701C61.939 27.3955 61.384 27.2059 60.7828 27.2059C59.9735 27.2059 59.2797 27.488 58.7109 28.0615C58.1421 28.6303 57.8553 29.3101 57.8553 30.0871V30.8964C57.8553 31.1369 57.9293 31.3219 58.0819 31.4606C58.2299 31.5948 58.4103 31.6641 58.623 31.6641H62.8084C63.4975 31.6641 64.1727 31.8306 64.834 32.159C65.4954 32.4873 66.0781 32.9683 66.5914 33.6019C67.04 34.1106 67.3869 34.6979 67.6274 35.3593C67.8679 36.0206 67.9881 36.6635 67.9881 37.297V38.1064C67.9881 39.0961 67.7985 40.0349 67.4239 40.9228C67.0493 41.8108 66.5313 42.5831 65.87 43.2444C65.2086 43.9058 64.4456 44.4237 63.5761 44.7984C62.7067 45.173 61.7725 45.3626 60.7828 45.3626C59.0716 45.3626 57.5779 44.8585 56.3014 43.8549C55.025 42.8513 54.1787 41.5333 53.7578 39.9146C53.6098 39.3134 53.6838 38.7585 53.9844 38.2497C54.285 37.741 54.7336 37.408 55.3349 37.26C55.9361 37.1121 56.4818 37.1861 56.9766 37.4867C57.4715 37.7873 57.7952 38.2359 57.9432 38.8371C58.1236 39.4984 58.4704 40.0303 58.9791 40.4372C59.4925 40.8396 60.0891 41.0431 60.7828 41.0431C61.5644 41.0431 62.2303 40.7517 62.7853 40.1644C63.3403 39.577 63.6177 38.8972 63.6177 38.1156V37.3063C63.6177 37.0057 63.5114 36.719 63.3033 36.4507C63.0905 36.1779 62.9287 36.0484 62.8084 36.0484H58.623C57.9339 36.0484 57.2819 35.9143 56.6668 35.6414C56.0517 35.3732 55.5106 35.0032 55.0435 34.5361C54.5764 34.069 54.211 33.5233 53.9382 32.8943C53.67 32.2653 53.5312 31.604 53.5312 30.9149V30.0917ZM42.2746 30.0917C42.2746 29.102 42.4642 28.1632 42.8388 27.2753C43.2134 26.3873 43.7314 25.615 44.3928 24.9583C45.0541 24.2969 45.8264 23.779 46.7144 23.4044C47.5977 23.0298 48.5365 22.8401 49.5262 22.8401C50.2477 22.8401 50.9969 22.9604 51.7784 23.2009C52.3797 23.3812 52.8098 23.742 53.0641 24.2831C53.3185 24.8242 53.3555 25.3791 53.1751 25.948C52.9947 26.5492 52.634 26.9747 52.0929 27.2336C51.5518 27.488 50.9969 27.525 50.428 27.3446C50.1274 27.2568 49.8268 27.2105 49.5262 27.2105C48.7446 27.2105 48.0694 27.4926 47.5006 28.0661C46.9317 28.6349 46.645 29.3148 46.645 30.0917V43.152C46.645 43.7532 46.4276 44.2711 45.9929 44.7059C45.5582 45.1406 45.0402 45.3579 44.439 45.3579C43.8378 45.3579 43.3291 45.1406 42.9082 44.7059C42.4874 44.2711 42.2793 43.7532 42.2793 43.152V30.0917H42.2746ZM36.1515 24.9583C36.1515 24.3571 36.3642 23.8483 36.7805 23.4275C37.2013 23.0066 37.71 22.7985 38.3112 22.7985C38.9124 22.7985 39.4212 23.0113 39.842 23.4275C40.2629 23.8483 40.471 24.3571 40.471 24.9583V38.1064C40.471 39.0961 40.286 40.0349 39.9068 40.9228C39.5322 41.8108 39.0142 42.5739 38.3529 43.2213C37.6915 43.8642 36.9284 44.3775 36.0544 44.7521C35.1849 45.1267 34.2507 45.3163 33.261 45.3163C32.2713 45.3163 31.3418 45.1313 30.4677 44.7521C29.5982 44.3775 28.8305 43.8642 28.1692 43.2213C27.5079 42.5739 26.9899 41.8108 26.6153 40.9228C26.2407 40.0349 26.0511 39.1007 26.0511 38.1064V24.9583C26.0511 24.3571 26.2638 23.8483 26.68 23.4275C27.1009 23.0066 27.6096 22.7985 28.2108 22.7985C28.812 22.7985 29.3208 23.0113 29.7416 23.4275C30.1625 23.8483 30.3706 24.3571 30.3706 24.9583V38.1064C30.3706 38.9157 30.6573 39.6002 31.2262 40.1551C31.795 40.7101 32.4702 40.9876 33.2518 40.9876C34.0611 40.9876 34.7456 40.7101 35.3005 40.1551C35.8555 39.6002 36.133 38.9157 36.133 38.1064V24.9583H36.1515ZM24.2197 29.3703C24.2197 29.6385 24.2197 30.1657 24.2197 30.9473C24.2197 31.6965 24.2197 32.5844 24.2197 33.6065C24.2197 34.5962 24.2197 35.646 24.2197 36.7606C24.2197 37.8428 24.2197 38.8463 24.2197 39.7759C24.2197 40.7055 24.2197 41.487 24.2197 42.116C24.2197 42.745 24.2197 43.1057 24.2197 43.1982C24.2197 43.7994 24.007 44.3081 23.5907 44.729C23.1699 45.1498 22.6612 45.3579 22.0599 45.3579C21.4587 45.3579 20.95 45.1452 20.5292 44.729C20.1083 44.3081 19.9002 43.7994 19.9002 43.1982C19.9002 43.1704 19.9002 42.8513 19.9002 42.2548C19.9002 41.6258 19.9002 40.8581 19.9002 39.9563C19.9002 39.0267 19.9002 38.0046 19.9002 36.8947C19.9002 35.7848 19.9002 34.7349 19.9002 33.7406C19.9002 32.7186 19.9002 31.8214 19.9002 31.0398C19.9002 30.2582 19.9002 29.7356 19.9002 29.4628C19.9002 29.102 19.8123 28.7875 19.6273 28.5193C18.9984 27.6175 18.1705 27.1689 17.1531 27.1689C16.3715 27.1689 15.6963 27.4464 15.1275 28.0013C14.5586 28.5563 14.2719 29.2269 14.2719 30.0038V33.8747C14.2719 34.476 14.0684 34.9847 13.6661 35.4055C13.2591 35.8264 12.7596 36.0345 12.1584 36.0345H12.1122H12.0659C11.4647 36.0345 10.956 35.8218 10.5351 35.4055C10.1143 34.9847 9.90616 34.476 9.90616 33.8747V30.0038C9.90616 29.2223 9.62868 28.5563 9.07371 28.0013C8.51874 27.4464 7.85279 27.1689 7.07121 27.1689C6.59024 27.1689 6.12776 27.2891 5.67454 27.5296C5.22594 27.7701 4.86521 28.0985 4.59235 28.5193C4.50448 28.6719 4.44436 28.8199 4.41199 28.9679C4.37962 29.1205 4.35187 29.2824 4.31949 29.4628C4.31949 29.731 4.31949 30.2582 4.31949 31.0398C4.31949 31.8214 4.31949 32.7186 4.31949 33.7406C4.31949 34.7303 4.31949 35.7848 4.31949 36.8947C4.31949 38.0046 4.31949 39.0267 4.31949 39.9563C4.31949 40.8581 4.31949 41.6212 4.31949 42.2548C4.31949 42.856 4.31949 43.1704 4.31949 43.1982C4.31949 43.7994 4.11138 44.3081 3.69053 44.729C3.26968 45.1498 2.76096 45.3579 2.15975 45.3579C1.55853 45.3579 1.04981 45.1452 0.628963 44.729C0.208113 44.3081 0 43.7994 0 43.1982C0 43.1103 0 42.7496 0 42.116C0 41.487 0 40.7055 0 39.7759C0 38.8463 0 37.8381 0 36.7606C0 35.6506 0 34.5962 0 33.6065C0 32.5844 0.0092491 31.6919 0.0231233 30.9288C0.0369975 30.1657 0.0462466 29.6431 0.0462466 29.3749C0.0462466 28.2048 0.360728 27.1226 0.989691 26.133C1.65103 25.1109 2.52972 24.3016 3.62578 23.7003C4.72184 23.0991 5.86878 22.7985 7.07121 22.7985C8.03315 22.7985 8.94884 22.9881 9.81829 23.3627C10.6877 23.7373 11.4554 24.2414 12.1168 24.8704C12.7781 24.2414 13.5366 23.7373 14.3921 23.3627C15.2477 22.9881 16.1727 22.7985 17.1624 22.7985C18.3648 22.7985 19.5025 23.0991 20.5847 23.7003C21.6668 24.3016 22.5502 25.1109 23.2439 26.133C23.8266 27.0903 24.1596 28.1725 24.2197 29.3703Z" fill="white"/>
<path d="M87.3056 24.5374H87.6247C87.8328 24.5374 87.9623 24.5281 88.0132 24.5096C88.064 24.4911 88.1057 24.4587 88.1334 24.4171C88.1612 24.3755 88.175 24.32 88.175 24.2553C88.175 24.1813 88.1565 24.1258 88.1149 24.0795C88.0779 24.0333 88.0224 24.0055 87.953 23.9963C87.9161 23.9916 87.8143 23.987 87.6386 23.987H87.301V24.5374H87.3056ZM86.8709 25.7722V23.6309H87.7819C88.0085 23.6309 88.175 23.6494 88.2814 23.691C88.3878 23.728 88.4664 23.7974 88.5311 23.8945C88.5959 23.9916 88.6236 24.1073 88.6236 24.2321C88.6236 24.394 88.5774 24.5235 88.4849 24.6299C88.3924 24.7362 88.249 24.801 88.064 24.8287C88.1565 24.8842 88.2352 24.9443 88.2953 25.0091C88.3554 25.0738 88.4386 25.1895 88.5404 25.3559L88.804 25.7722H88.286L87.9762 25.3051C87.8652 25.1386 87.7866 25.0368 87.7449 24.9906C87.7033 24.949 87.6617 24.9166 87.6154 24.9027C87.5692 24.8842 87.4952 24.8796 87.3981 24.8796H87.3102V25.7768H86.8709V25.7722Z" fill="white"/>
<path d="M87.8142 22.7939C88.864 22.7939 89.7196 23.6448 89.7196 24.6993C89.7196 25.7491 88.8686 26.6047 87.8142 26.6047C86.7644 26.6047 85.9088 25.7537 85.9088 24.6993C85.9088 23.6495 86.7598 22.7939 87.8142 22.7939Z" stroke="white" stroke-width="0.7638" stroke-miterlimit="22.926"/>
<path fill-rule="evenodd" clip-rule="evenodd" d="M116.959 9.68276C117.098 9.729 117.593 9.58101 117.852 9.22953C118.106 8.87805 118.166 8.34159 118.097 8.09185C118.028 7.84211 117.995 7.92073 117.935 8.14272C117.87 8.36471 117.773 8.73931 117.528 9.05379C117.283 9.3729 116.82 9.63188 116.959 9.68276ZM115.78 7.48139C115.928 7.73575 116.275 7.80974 116.548 7.64788C116.626 7.60163 116.686 7.54613 116.737 7.47676C116.71 7.92074 116.474 8.33696 116.067 8.55432C115.428 8.89655 114.614 8.63294 114.254 7.95773C113.893 7.28715 114.115 6.46395 114.758 6.11709C115.387 5.77486 116.187 6.03385 116.557 6.68593C116.395 6.61194 116.192 6.62119 116.011 6.72293C115.734 6.88942 115.632 7.22703 115.78 7.48139ZM107.446 4.16083C107.497 4.09146 108.024 3.8001 108.695 3.62436C109.231 3.48562 109.865 3.41625 110.3 3.42088C110.323 3.27751 110.355 3.13877 110.392 3.00928C110.582 2.35719 110.975 1.90859 111.382 1.58024C111.789 1.25188 112.214 1.04839 112.741 0.942023C113.269 0.840279 113.898 0.840279 114.286 0.9004C114.675 0.960521 114.832 1.08539 114.966 1.2565C115.1 1.43224 115.22 1.65423 115.331 1.95021C115.442 2.2462 115.549 2.61155 115.687 2.94915C115.822 3.28676 115.988 3.59662 116.173 3.88335C116.358 4.17471 116.557 4.44294 117.297 5.27077C118.037 6.09397 119.313 7.46751 120.062 8.59132C120.807 9.71513 121.02 10.5938 121.08 11.565C121.459 17.7807 113.579 24.5513 117.944 31.7612C118.421 32.5474 119.017 33.255 119.632 33.8146C120.247 34.3742 120.881 34.7996 121.695 35.1188C122.509 35.4425 123.503 35.6645 124.474 35.8957C125.446 36.1223 126.394 36.3536 127.587 36.6865C128.78 37.0195 130.218 37.4496 131.338 37.8705C132.457 38.2913 133.257 38.6983 134.071 39.3411C134.885 39.984 135.713 40.858 136.309 41.4824C136.906 42.1021 137.266 42.4721 137.479 42.6894C137.692 42.9022 137.757 42.9715 137.919 42.9623C138.076 42.9577 138.335 42.879 138.843 42.7681C139.357 42.6571 140.124 42.5091 140.86 42.375C141.595 42.2455 142.293 42.1345 142.802 42.2038C143.311 42.2732 143.63 42.5276 143.82 42.8189C144.009 43.1103 144.069 43.434 144.18 43.73C144.296 44.0214 144.458 44.285 144.647 44.4607C144.832 44.6411 145.041 44.7336 144.962 44.7937C144.883 44.8538 144.513 44.8769 144.009 44.8723C143.505 44.8723 142.858 44.8399 142.229 44.7012C141.6 44.5624 140.989 44.3127 140.615 44.1971C140.24 44.0769 140.097 44.0907 139.995 44.1786C139.893 44.2665 139.833 44.433 139.99 44.6087C140.148 44.7891 140.522 44.974 140.966 45.1498C141.415 45.3209 141.933 45.4735 142.488 45.5198C143.043 45.566 143.625 45.5013 144.828 45.4874C146.03 45.4735 147.848 45.5151 149.013 45.5706C150.174 45.6261 150.687 45.7001 151.076 45.8712C151.469 46.047 151.742 46.3245 151.876 46.6898C152.015 47.0552 152.015 47.513 151.982 47.883C151.95 48.2484 151.89 48.5305 151.52 48.8218C151.145 49.1132 150.461 49.423 149.36 49.6126C148.264 49.8023 146.752 49.8716 145.415 49.8485C144.079 49.8254 142.909 49.7051 142.03 49.5895C141.147 49.4693 140.55 49.3537 140.032 49.2427C139.519 49.1317 139.084 49.0346 138.843 49.0022C138.598 48.9698 138.547 49.0068 138.242 49.1224C137.937 49.2427 137.382 49.4415 136.365 49.719C135.352 49.9965 133.876 50.3526 132.498 50.6255C131.12 50.903 129.844 51.0972 128.308 51.3145C126.773 51.5319 124.988 51.777 123.591 51.9851C122.194 52.1932 121.186 52.3644 120.511 52.4846C119.836 52.6048 119.494 52.6696 119.105 52.4384C118.717 52.2117 118.287 51.6892 117.907 51.2961C117.528 50.9029 117.214 50.6347 116.89 50.5468C116.571 50.459 116.252 50.5468 116.076 50.5977C115.9 50.6532 115.872 50.6671 116.007 50.7735C116.141 50.8798 116.437 51.0741 116.931 51.481C117.426 51.888 118.12 52.5031 118.666 53.0719C119.211 53.6454 119.614 54.168 119.836 54.575C120.058 54.982 120.099 55.2641 120.086 55.5046C120.072 55.745 120.002 55.9393 119.503 56.1983C119.008 56.4572 118.092 56.7764 117.079 56.9845C116.067 57.1926 114.961 57.2943 113.999 57.2203C113.037 57.1417 112.219 56.8873 111.581 56.5682C110.942 56.2491 110.48 55.8653 110.212 55.3889C109.944 54.9172 109.865 54.353 109.846 54.0061C109.828 53.6593 109.87 53.5298 109.86 53.4697C109.851 53.4095 109.791 53.4234 109.356 53.3402C108.921 53.2569 108.108 53.0812 107.307 52.739C106.507 52.3967 105.712 51.8973 105.074 51.2267C104.435 50.5561 103.959 49.7236 103.598 49.1086C103.242 48.4981 103.002 48.105 102.812 47.9246C102.623 47.7443 102.479 47.772 102.364 47.8275C102.243 47.883 102.151 47.957 102.438 48.475C102.72 48.9883 103.386 49.9456 103.737 50.4359C104.089 50.9261 104.13 50.9584 103.668 50.9446C103.205 50.9307 102.243 50.8706 100.939 50.7272C99.6396 50.5838 98.0071 50.3619 96.7538 50.0427C95.5005 49.7236 94.6311 49.3074 94.0761 48.8819C93.5211 48.4565 93.2853 48.0171 93.165 47.7026C93.0448 47.3882 93.0448 47.1985 93.1696 46.9257C93.2945 46.6528 93.5442 46.2967 93.979 46.084C94.4183 45.8712 95.0473 45.8019 96 45.7926C96.9573 45.788 98.2383 45.8435 99.1587 45.9267C100.079 46.0054 100.629 46.1071 100.967 46.1395C101.309 46.1719 101.439 46.1349 101.448 46.0377C101.462 45.936 101.355 45.7695 101.194 45.4134C101.032 45.0573 100.819 44.5162 100.504 43.3323C100.19 42.1483 99.7784 40.3216 99.5795 38.5781C99.3853 36.8299 99.4084 35.1604 99.5102 33.4215C99.6119 31.678 99.7876 29.8697 100.116 28.3065C100.44 26.7434 100.916 25.43 101.614 23.876C102.313 22.3221 103.238 20.537 104.19 18.8258C105.143 17.1147 106.128 15.4822 106.882 14.2566C107.64 13.0311 108.172 12.2171 108.667 11.1719C109.157 10.1314 109.611 8.86418 109.856 7.85599C110.105 6.8478 110.152 6.10322 110.17 5.30314C110.17 5.2014 110.175 5.10428 110.175 5.00253C110.133 5.03028 110.082 5.06265 110.022 5.09965C109.786 5.23377 109.412 5.40026 109.06 5.61762C108.709 5.83498 108.376 6.10784 108.038 6.43157C107.705 6.7553 107.368 7.12991 107.395 7.03279C107.423 6.93567 107.816 6.36683 108.362 5.83498C108.908 5.30314 109.601 4.81292 109.976 4.6418C110.064 4.60481 110.133 4.58168 110.184 4.57243C110.184 4.52156 110.189 4.47069 110.189 4.42444C110.152 4.43832 110.115 4.45219 110.068 4.46606C109.819 4.54468 109.421 4.62793 109.046 4.76667C108.667 4.90541 108.306 5.09965 107.936 5.34014C107.566 5.58525 107.192 5.87661 107.229 5.78874C107.266 5.70087 107.719 5.22915 108.32 4.82679C108.921 4.42444 109.675 4.09609 110.064 4.00822C110.119 3.99434 110.166 3.98972 110.212 3.98509C110.216 3.93885 110.221 3.8926 110.221 3.84635C109.985 3.82785 109.694 3.8001 109.412 3.80473C109.009 3.80935 108.612 3.86947 108.205 3.97122C107.821 4.08221 107.395 4.2302 107.446 4.16083Z" fill="white"/>
</svg>
