<svg width="21" height="22" viewBox="0 0 21 22" fill="none" xmlns="http://www.w3.org/2000/svg">
<path d="M1.55459 2.38686C-0.0125573 4.01467 0.308185 5.74385 0.308185 10.9971C0.308185 15.3595 -0.452955 19.7327 3.53057 20.7622C4.77448 21.0822 15.7961 21.0822 17.0383 20.7606C18.6969 20.3327 20.0463 18.9874 20.2308 16.6416C20.2565 16.3142 20.2565 5.68569 20.23 5.35165C20.0339 2.85302 18.4958 1.413 16.4691 1.12134C16.0046 1.05403 15.9116 1.03409 13.5284 1.02994C5.07528 1.03409 3.22229 0.657675 1.55459 2.38686Z" fill="#5181B8"/>
<path d="M16.2815 14.1599C16.2448 14.0988 16.0178 13.6082 14.9255 12.5999C13.782 11.544 13.9356 11.7155 15.3129 9.8898C16.1518 8.77794 16.4872 8.09894 16.3822 7.80867C16.2823 7.53197 15.6654 7.60497 15.6654 7.60497L13.6139 7.61685C13.6139 7.61685 13.462 7.59648 13.3485 7.66353C13.2384 7.72973 13.1676 7.88251 13.1676 7.88251C13.1676 7.88251 12.8424 8.74314 12.4089 9.47476C11.495 11.0186 11.1289 11.1001 10.9796 11.0042C10.6322 10.781 10.7193 10.1062 10.7193 9.62754C10.7193 8.13119 10.9471 7.50736 10.2747 7.3461C10.0511 7.29263 9.88725 7.25698 9.31635 7.25104C8.58416 7.2434 7.96377 7.25358 7.61303 7.42418C7.37921 7.53791 7.19915 7.79169 7.30924 7.80612C7.44492 7.82394 7.75213 7.88845 7.91512 8.10912C8.12591 8.39345 8.11822 9.03341 8.11822 9.03341C8.11822 9.03341 8.2394 10.7946 7.83576 11.0135C7.55842 11.1638 7.17867 10.8574 6.36371 9.45609C5.94642 8.7389 5.63067 7.94531 5.63067 7.94531C5.63067 7.94531 5.57008 7.79763 5.46171 7.7187C5.33029 7.62279 5.14596 7.59223 5.14596 7.59223L3.19517 7.60412C3.19517 7.60412 2.90247 7.6126 2.79495 7.73907C2.69937 7.85195 2.78727 8.08451 2.78727 8.08451C2.78727 8.08451 4.31479 11.6382 6.0437 13.4299C7.6301 15.0723 9.4307 14.9645 9.4307 14.9645H10.2465C10.2465 14.9645 10.4931 14.9373 10.6186 14.8024C10.7346 14.6785 10.7304 14.4459 10.7304 14.4459C10.7304 14.4459 10.7142 13.3569 11.2228 13.1965C11.7237 13.0387 12.3671 14.249 13.049 14.7149C13.5644 15.0672 13.9561 14.9899 13.9561 14.9899L15.7797 14.9645C15.7797 14.9645 16.7338 14.9059 16.2815 14.1599Z" fill="white"/>
</svg>
