<svg width="160" height="51" viewBox="0 0 160 51" fill="none" xmlns="http://www.w3.org/2000/svg">
<path d="M97.0333 22.0156C97.0232 21.6635 97.0837 21.3131 97.2115 20.9849C97.3392 20.6567 97.5314 20.3574 97.7768 20.1049C98.0223 19.8523 98.3158 19.6515 98.6402 19.5144C98.9646 19.3773 99.3132 19.3066 99.6654 19.3066C100.018 19.3066 100.366 19.3773 100.691 19.5144C101.015 19.6515 101.308 19.8523 101.554 20.1049C101.799 20.3574 101.992 20.6567 102.119 20.9849C102.247 21.3131 102.308 21.6635 102.297 22.0156V38.0326C102.304 39.2101 102.071 40.3767 101.613 41.4614C101.176 42.5107 100.532 43.4617 99.721 44.258C98.9116 45.0479 97.9625 45.6806 96.9221 46.1239C95.8457 46.5772 94.6896 46.8106 93.5217 46.8106C92.3537 46.8106 91.1976 46.5772 90.1212 46.1239C89.0818 45.6799 88.1336 45.0473 87.3245 44.258C86.5123 43.4624 85.8688 42.5113 85.4325 41.4614C84.9735 40.3768 84.7399 39.2103 84.7459 38.0326V22.0156C84.7459 21.3172 85.0233 20.6474 85.5171 20.1536C86.0109 19.6598 86.6807 19.3824 87.379 19.3824C88.0774 19.3824 88.7472 19.6598 89.241 20.1536C89.7348 20.6474 90.0122 21.3172 90.0122 22.0156V38.0326C90.0025 38.4982 90.0902 38.9608 90.2696 39.3906C90.449 39.8204 90.7162 40.2079 91.0541 40.5284C91.5423 41.0269 92.1687 41.3676 92.8524 41.5063C93.5361 41.6451 94.2457 41.5756 94.8896 41.3069C95.5334 41.0381 96.0818 40.5825 96.464 39.9988C96.8461 39.4151 97.0444 38.7302 97.0333 38.0326V22.0156ZM65.2194 28.2715C65.2123 27.1031 65.4453 25.9457 65.9038 24.8711C66.3494 23.8273 66.9901 22.8781 67.7915 22.0744C68.6036 21.2649 69.5663 20.6222 70.6252 20.1824C71.7099 19.7236 72.8764 19.49 74.054 19.4957C75.9556 19.4684 77.8109 20.0827 79.3204 21.2396C80.049 21.7863 80.6874 22.4439 81.2124 23.1883C81.7496 23.9518 82.1658 24.7937 82.4462 25.6841C82.5564 26.0113 82.5987 26.3574 82.5706 26.7015C82.5425 27.0456 82.4445 27.3803 82.2827 27.6852C82.1227 27.9995 81.8984 28.2767 81.6242 28.4987C81.3501 28.7206 81.0323 28.8824 80.6915 28.9734C80.3549 29.0845 79.9995 29.1272 79.6461 29.0991C79.2928 29.071 78.9486 28.9727 78.6338 28.8099C78.3196 28.6496 78.0427 28.4252 77.8207 28.1511C77.5988 27.877 77.4369 27.5593 77.3455 27.2187C77.1293 26.5116 76.6939 25.8915 76.1023 25.448C75.5107 25.0045 74.7934 24.7605 74.054 24.7512C73.5844 24.7432 73.1182 24.8316 72.684 25.0108C72.2499 25.19 71.8571 25.4562 71.5299 25.7931C71.1974 26.1118 70.9337 26.4951 70.7549 26.9194C70.5761 27.3438 70.486 27.8002 70.4901 28.2606V29.2481C70.4825 29.3755 70.5029 29.503 70.55 29.6217C70.5971 29.7403 70.6697 29.8472 70.7626 29.9347C70.9417 30.0963 71.1753 30.1843 71.4165 30.181H76.5107C77.37 30.1848 78.2162 30.3916 78.9803 30.7848C79.8115 31.2084 80.541 31.8071 81.1187 32.5395C81.6711 33.1659 82.0994 33.8916 82.3808 34.6779C82.6704 35.4378 82.8232 36.2429 82.832 37.0561V38.0435C82.8377 39.2209 82.6049 40.3873 82.1476 41.4723C81.707 42.5308 81.0643 43.4933 80.2555 44.306C79.4513 45.1089 78.5014 45.751 77.4567 46.198C76.0089 46.8002 74.4282 47.0108 72.8733 46.8088C71.3183 46.6068 69.8439 45.9992 68.5981 45.0471C67.0559 43.8418 65.9641 42.1527 65.4984 40.2516C65.4053 39.9123 65.3817 39.5576 65.4289 39.2089C65.4761 38.8602 65.5931 38.5246 65.7731 38.2222C66.0332 37.7625 66.4264 37.3924 66.9009 37.1604C67.3755 36.9284 67.9091 36.8456 68.4316 36.9227C68.9542 36.9999 69.4411 37.2334 69.8284 37.5926C70.2156 37.9518 70.4851 38.4198 70.6013 38.935C70.7966 39.7049 71.2402 40.389 71.8634 40.8816C72.4856 41.3766 73.2612 41.6388 74.0562 41.6227C74.5157 41.6273 74.971 41.5343 75.3918 41.3497C75.8127 41.1652 76.1896 40.8935 76.4976 40.5524C76.8225 40.2236 77.0793 39.8339 77.2532 39.4056C77.4272 38.9773 77.5148 38.5188 77.5112 38.0566V37.0561C77.5061 36.6751 77.3707 36.3074 77.1275 36.0141C76.8725 35.685 76.672 35.5215 76.5237 35.5215H71.423C70.6023 35.5255 69.7898 35.3569 69.0384 35.0267C68.3017 34.7069 67.6318 34.2514 67.0635 33.6839C66.4907 33.1087 66.0341 32.4286 65.7186 31.6807C65.3909 30.9186 65.2232 30.0973 65.2259 29.2677L65.2194 28.2715ZM51.5064 28.2715C51.5019 27.0963 51.7347 25.9323 52.1908 24.8493C53.0798 22.7165 54.7751 21.0212 56.9079 20.1322C57.9929 19.6749 59.1593 19.4421 60.3367 19.4478C61.2674 19.4554 62.1917 19.6023 63.0788 19.8837C63.4194 19.9736 63.736 20.1373 64.0062 20.3634C64.2763 20.5894 64.4933 20.8722 64.6417 21.1916C64.9516 21.824 65.0009 22.5527 64.7791 23.221C64.6892 23.5616 64.5255 23.8782 64.2994 24.1483C64.0734 24.4184 63.7906 24.6354 63.4712 24.7839C62.8389 25.0938 62.1102 25.1431 61.4418 24.9212C61.0884 24.8142 60.7212 24.7591 60.3519 24.7577C59.4252 24.7707 58.5401 25.1446 57.8847 25.8C57.2294 26.4553 56.8555 27.3404 56.8425 28.2672V44.1796C56.8345 44.8923 56.5466 45.5734 56.0409 46.0758C55.5353 46.5782 54.8524 46.8617 54.1396 46.8651C53.7902 46.8703 53.4436 46.8022 53.1222 46.6652C52.8008 46.5281 52.5118 46.3252 52.2737 46.0694C52.0261 45.8212 51.8306 45.5259 51.6988 45.201C51.5671 44.876 51.5016 44.528 51.5064 44.1774V28.2715ZM44.045 22.0156C44.045 21.3172 44.3224 20.6474 44.8162 20.1536C45.3101 19.6598 45.9798 19.3824 46.6782 19.3824C47.3765 19.3824 48.0463 19.6598 48.5401 20.1536C49.0339 20.6474 49.3114 21.3172 49.3114 22.0156V38.0326C49.3171 39.21 49.0842 40.3764 48.6269 41.4614C48.1896 42.5107 47.5462 43.4617 46.7349 44.258C45.9252 45.0475 44.9762 45.6802 43.936 46.1239C42.8596 46.5772 41.7035 46.8106 40.5356 46.8106C39.3676 46.8106 38.2115 46.5772 37.1351 46.1239C36.0949 45.6802 35.146 45.0475 34.3363 44.258C33.5249 43.4617 32.8816 42.5107 32.4442 41.4614C31.9869 40.3764 31.7541 39.21 31.7598 38.0326V22.0156C31.7598 21.3172 32.0372 20.6474 32.531 20.1536C33.0248 19.6598 33.6946 19.3824 34.3929 19.3824C35.0913 19.3824 35.7611 19.6598 36.2549 20.1536C36.7487 20.6474 37.0261 21.3172 37.0261 22.0156V38.0326C37.0164 38.4982 37.1041 38.9608 37.2835 39.3906C37.4629 39.8204 37.7301 40.2079 38.0681 40.5284C38.5563 41.0262 39.1825 41.3661 39.8658 41.5044C40.5492 41.6428 41.2583 41.5731 41.9017 41.3044C42.545 41.0358 43.0931 40.5805 43.4752 39.9973C43.8572 39.414 44.0557 38.7297 44.045 38.0326V22.0156ZM29.5102 27.3931V44.2319C29.5102 44.9302 29.2328 45.6 28.739 46.0938C28.2452 46.5876 27.5754 46.8651 26.8771 46.8651C26.1787 46.8651 25.5089 46.5876 25.0151 46.0938C24.5213 45.6 24.2439 44.9302 24.2439 44.2319V27.5043C24.253 27.0955 24.1382 26.6935 23.9147 26.3512C23.1475 25.254 22.1419 24.7061 20.8979 24.7076C20.4397 24.7026 19.9852 24.7898 19.5613 24.9639C19.1374 25.138 18.7528 25.3956 18.4304 25.7212C18.0963 26.0332 17.8311 26.4115 17.6517 26.8319C17.4723 27.2523 17.3826 27.7055 17.3885 28.1625V32.8796C17.3957 33.224 17.3338 33.5664 17.2065 33.8865C17.0792 34.2066 16.8891 34.4979 16.6474 34.7433C16.4122 34.9933 16.1271 35.191 15.8105 35.3236C15.4939 35.4562 15.1529 35.5206 14.8098 35.5128H14.7008C14.3544 35.5151 14.0109 35.4486 13.6904 35.3171C13.3699 35.1855 13.0787 34.9917 12.8337 34.7467C12.5887 34.5017 12.3949 34.2105 12.2634 33.89C12.1318 33.5695 12.0653 33.226 12.0676 32.8796V28.1625C12.0653 27.2469 11.7006 26.3695 11.0532 25.7221C10.4057 25.0746 9.52828 24.7099 8.61268 24.7076C8.01847 24.709 7.43402 24.8589 6.91245 25.1436C6.37964 25.4256 5.92903 25.8409 5.60458 26.349C5.50054 26.518 5.42677 26.7039 5.38661 26.8983C5.34955 27.0814 5.31249 27.2819 5.27762 27.5021V44.2319C5.28341 44.5786 5.21812 44.9229 5.08578 45.2434C4.95345 45.5639 4.75687 45.8539 4.50815 46.0956C4.2654 46.3459 3.97363 46.5434 3.65107 46.6758C3.32852 46.8082 2.98213 46.8726 2.63354 46.8651C2.28645 46.8712 1.9418 46.806 1.62087 46.6737C1.29994 46.5413 1.00956 46.3446 0.767651 46.0956C0.5195 45.8541 0.32341 45.5643 0.191453 45.2442C0.0594966 44.9241 -0.00553293 44.5803 0.000368541 44.2341V32.5504C0.000368541 31.308 0.00036854 30.2181 0.0265259 29.2808C0.0526833 28.3435 0.054863 27.7179 0.054863 27.3887C0.0464474 25.9879 0.447214 24.6152 1.20797 23.439C2.01142 22.2008 3.11526 21.1862 4.4166 20.4897C5.69922 19.7739 7.14385 19.3987 8.61268 19.3998C9.7631 19.3965 10.902 19.6294 11.9586 20.0843C12.9929 20.5253 13.94 21.1476 14.7553 21.9218C15.5631 21.1472 16.5009 20.5207 17.5258 20.0712C18.5899 19.6108 19.7385 19.3776 20.8979 19.3868C22.3599 19.3875 23.7967 19.7676 25.0678 20.4897C26.3678 21.2047 27.4777 22.2204 28.3048 23.452C29.0407 24.6402 29.456 25.9988 29.5102 27.3953V27.3931Z" fill="#F9F9FA"/>
<path d="M106.361 21.5033H106.751C106.909 21.5105 107.068 21.5003 107.224 21.4728C107.284 21.4534 107.336 21.4142 107.372 21.3616C107.409 21.3029 107.427 21.2346 107.424 21.1654C107.43 21.0865 107.405 21.0086 107.355 20.9474C107.303 20.8908 107.232 20.8544 107.156 20.845C107.113 20.845 106.986 20.845 106.773 20.845H106.361V21.5033ZM105.833 23.0095V20.3938H106.943C107.148 20.3846 107.353 20.4082 107.551 20.4635C107.677 20.5111 107.783 20.5993 107.854 20.7142C107.931 20.8368 107.971 20.9791 107.969 21.124C107.975 21.3019 107.914 21.4754 107.797 21.6101C107.659 21.7475 107.477 21.833 107.283 21.852C107.387 21.9094 107.481 21.983 107.562 22.07C107.674 22.2015 107.774 22.3431 107.86 22.4929L108.179 23.003H107.551L107.172 22.4319C107.087 22.2988 106.994 22.1714 106.893 22.0504C106.849 22.0025 106.796 21.9652 106.736 21.9414C106.648 21.9185 106.558 21.9089 106.467 21.9131H106.361V23.003L105.833 23.0095Z" fill="#F9F9FA"/>
<path d="M107.006 19.3867C107.465 19.3863 107.913 19.522 108.295 19.7767C108.677 20.0314 108.975 20.3936 109.15 20.8174C109.326 21.2413 109.372 21.7078 109.283 22.1579C109.193 22.608 108.972 23.0215 108.648 23.346C108.324 23.6705 107.91 23.8914 107.46 23.9808C107.01 24.0703 106.543 24.0241 106.119 23.8483C105.696 23.6725 105.333 23.3749 105.079 22.9932C104.824 22.6114 104.688 22.1627 104.689 21.7038C104.689 21.0893 104.933 20.4999 105.367 20.0654C105.802 19.6308 106.391 19.3867 107.006 19.3867V19.3867Z" stroke="#F9F9FA" stroke-width="1.63" stroke-miterlimit="22.93"/>
<path fill-rule="evenodd" clip-rule="evenodd" d="M120.145 2.95339C120.485 2.72523 120.863 2.56189 121.262 2.47166C121.731 2.35257 122.214 2.29181 122.698 2.29074C122.718 2.16635 122.746 2.04332 122.781 1.92236C122.935 1.41731 123.244 0.973479 123.664 0.653723C124.014 0.360054 124.433 0.1605 124.882 0.0739018C125.338 -0.0100663 125.804 -0.022568 126.264 0.0368456C126.381 0.044684 126.495 0.0773094 126.598 0.132555C126.702 0.187801 126.792 0.264403 126.864 0.357273C127.004 0.54738 127.115 0.757542 127.193 0.98069C127.293 1.24444 127.389 1.57359 127.509 1.8744C127.628 2.16618 127.774 2.44637 127.945 2.71144C128.241 3.15422 128.577 3.56869 128.95 3.94955C129.604 4.68632 130.754 5.91135 131.421 6.92059C131.975 7.70009 132.291 8.62277 132.333 9.57774C132.671 15.1384 125.628 21.1894 129.529 27.6372C129.944 28.3185 130.453 28.9373 131.042 29.4748C131.577 29.9781 132.203 30.3747 132.886 30.6431C133.698 30.9315 134.528 31.1631 135.371 31.3363C136.243 31.5412 137.087 31.7461 138.155 32.0426C139.223 32.339 140.509 32.727 141.51 33.1019C142.39 33.4013 143.216 33.8431 143.953 34.4098C144.662 35.0025 145.33 35.6419 145.954 36.3237C146.486 36.8795 146.809 37.2086 147 37.4005C147.192 37.5923 147.249 37.6533 147.391 37.6468C147.67 37.6043 147.946 37.5461 148.219 37.4724C148.679 37.3721 149.365 37.2392 150.022 37.1236C150.678 37.0081 151.303 36.9057 151.765 36.9689C151.949 36.9878 152.125 37.0471 152.283 37.1424C152.44 37.2378 152.575 37.3668 152.677 37.5204C152.815 37.7782 152.923 38.051 152.999 38.3334C153.089 38.579 153.231 38.8021 153.415 38.9873C153.581 39.1465 153.766 39.2293 153.694 39.2838C153.417 39.3559 153.13 39.3795 152.844 39.3535C152.31 39.3584 151.777 39.3073 151.253 39.201C150.765 39.0747 150.283 38.9234 149.81 38.7476C149.472 38.6429 149.346 38.6538 149.256 38.7323C149.229 38.7562 149.207 38.7859 149.191 38.8192C149.176 38.8524 149.168 38.8886 149.168 38.9252C149.168 38.9618 149.176 38.998 149.191 39.0313C149.207 39.0646 149.229 39.0942 149.256 39.1181C149.511 39.3361 149.808 39.5 150.128 39.5999C150.564 39.7751 151.023 39.8867 151.491 39.9312C151.986 39.9726 152.509 39.9137 153.583 39.9028C154.658 39.8919 156.284 39.929 157.324 39.9791C158.364 40.0293 158.821 40.0925 159.17 40.2494C159.333 40.3162 159.481 40.4156 159.604 40.5415C159.728 40.6675 159.824 40.8173 159.887 40.9818C159.993 41.3267 160.025 41.6898 159.981 42.0478C159.984 42.2106 159.948 42.3718 159.876 42.5179C159.804 42.664 159.698 42.7905 159.567 42.887C159.233 43.1485 158.619 43.4232 157.638 43.5932C156.471 43.7685 155.291 43.8421 154.111 43.8134C153.097 43.7941 152.086 43.7162 151.081 43.5801C150.294 43.4755 149.758 43.3622 149.298 43.2706C148.838 43.1791 148.45 43.0831 148.234 43.0526C148.048 43.0267 147.858 43.0643 147.696 43.1594C147.146 43.3673 146.586 43.5463 146.017 43.6957C145.108 43.9442 143.792 44.2624 142.56 44.5065C141.329 44.7507 140.184 44.9294 138.813 45.1234C137.442 45.3174 135.844 45.5376 134.595 45.7229C133.346 45.9081 132.444 46.0607 131.84 46.1588C131.236 46.2569 130.931 46.3223 130.584 46.1196C130.238 45.9169 129.85 45.4504 129.514 45.0973C129.178 44.7441 128.893 44.5065 128.605 44.4281C128.363 44.3747 128.11 44.3913 127.877 44.476C127.722 44.5218 127.696 44.5392 127.814 44.633C127.932 44.7267 128.198 44.9033 128.64 45.2673C129.183 45.713 129.701 46.1882 130.192 46.6907C130.596 47.0937 130.948 47.5455 131.241 48.0356C131.394 48.2847 131.47 48.5738 131.459 48.8661C131.445 49.0841 131.382 49.2563 130.94 49.4873C130.244 49.8093 129.512 50.0458 128.76 50.1914C127.856 50.3889 126.929 50.4623 126.005 50.4094C125.253 50.3553 124.519 50.157 123.842 49.8252C123.338 49.6042 122.91 49.2376 122.615 48.7724C122.416 48.3897 122.305 47.9674 122.29 47.5364C122.287 47.3765 122.291 47.2164 122.303 47.0569C122.303 47.0046 122.242 47.0155 121.852 46.9414C121.225 46.8256 120.611 46.6451 120.021 46.403C119.271 46.0916 118.592 45.6311 118.025 45.0493C117.517 44.4711 117.078 43.8362 116.717 43.1573C116.521 42.78 116.286 42.4248 116.015 42.0979C115.968 42.0389 115.902 41.9979 115.829 41.982C115.755 41.9661 115.678 41.9763 115.612 42.0107C115.505 42.0587 115.422 42.1284 115.675 42.5883C115.928 43.0483 116.523 43.8962 116.837 44.3322C117.15 44.7681 117.19 44.7986 116.776 44.7856C116.361 44.7725 115.5 44.718 114.339 44.5916C113.079 44.4678 111.829 44.2625 110.596 43.9769C109.475 43.6913 108.697 43.3229 108.198 42.9393C107.832 42.6737 107.549 42.3082 107.385 41.8864C107.331 41.7789 107.303 41.6602 107.303 41.5399C107.303 41.4195 107.331 41.3009 107.385 41.1933C107.532 40.8658 107.789 40.5999 108.111 40.4413C108.503 40.2494 109.063 40.1862 109.92 40.1819C110.777 40.1775 111.923 40.2276 112.743 40.2996C113.563 40.3715 114.051 40.4609 114.363 40.4914C114.674 40.5219 114.783 40.4914 114.798 40.3977C114.814 40.3039 114.716 40.1601 114.581 39.8418C114.323 39.2392 114.117 38.6157 113.966 37.9781C113.593 36.582 113.317 35.1617 113.14 33.7275C112.987 32.1947 112.966 30.6516 113.076 29.1151C113.147 27.5783 113.328 26.0486 113.617 24.5376C113.91 23.1713 114.359 21.8431 114.955 20.5791C115.581 19.1906 116.407 17.5928 117.259 16.0626C118.112 14.5324 118.988 13.0785 119.67 11.9886C120.256 11.1018 120.788 10.1811 121.264 9.23116C121.71 8.27796 122.066 7.28556 122.33 6.26666C122.514 5.51981 122.607 4.75359 122.609 3.98443V3.71631L122.471 3.80133C122.253 3.91903 121.926 4.06726 121.599 4.26344C121.271 4.47294 120.964 4.71621 120.686 4.98931C120.387 5.27922 120.087 5.6149 120.111 5.52771C120.349 5.13079 120.643 4.76971 120.983 4.45526C121.41 4.0325 121.896 3.67351 122.426 3.38935C122.485 3.36009 122.548 3.33883 122.613 3.32613C122.613 3.28036 122.613 3.23676 122.613 3.19099C122.578 3.20564 122.543 3.21802 122.506 3.22804C122.288 3.29998 121.931 3.37409 121.591 3.49834C121.241 3.62927 120.908 3.80122 120.599 4.01058C120.27 4.22856 119.945 4.49014 119.967 4.41166C120.243 4.07421 120.572 3.78411 120.941 3.55283C121.421 3.22875 121.948 2.98095 122.504 2.81825C122.547 2.8084 122.591 2.80185 122.635 2.79863C122.635 2.75721 122.635 2.7158 122.635 2.67656C122.417 2.65912 122.164 2.63514 121.909 2.63732C121.541 2.64378 121.175 2.69502 120.819 2.78991C120.453 2.88364 120.074 3.00789 120.119 2.95339" fill="#F9F9FA"/>
<path fill-rule="evenodd" clip-rule="evenodd" d="M126.683 4.71027C126.894 4.58248 127.139 4.52099 127.386 4.53375C127.633 4.54651 127.87 4.63293 128.067 4.78185C128.264 4.93077 128.412 5.13536 128.492 5.36921C128.572 5.60306 128.579 5.85544 128.514 6.09377C128.449 6.3321 128.314 6.54545 128.126 6.70628C127.939 6.8671 127.707 6.96803 127.462 6.99602C127.217 7.02401 126.968 6.97779 126.749 6.86332C126.53 6.74884 126.351 6.57138 126.234 6.35382C126.075 6.07629 126.034 5.7473 126.118 5.43912C126.202 5.13095 126.405 4.8688 126.683 4.71027Z" fill="#1D5396"/>
<path fill-rule="evenodd" clip-rule="evenodd" d="M127.598 5.92446C127.642 6.01876 127.714 6.09759 127.803 6.1507C127.893 6.20381 127.996 6.22873 128.1 6.22223C128.204 6.21573 128.304 6.17811 128.386 6.11425C128.468 6.0504 128.53 5.96326 128.562 5.86419C128.594 5.76512 128.595 5.65869 128.566 5.55875C128.537 5.45881 128.478 5.36999 128.398 5.30383C128.317 5.23767 128.219 5.19724 128.115 5.18781C128.011 5.17837 127.907 5.20035 127.816 5.2509C127.757 5.28045 127.705 5.32141 127.662 5.37139C127.619 5.42138 127.587 5.4794 127.566 5.54207C127.546 5.60474 127.538 5.67082 127.544 5.73647C127.549 5.80212 127.568 5.86602 127.598 5.92446Z" fill="#F9F9FA"/>
<path fill-rule="evenodd" clip-rule="evenodd" d="M128.651 7.89052C128.71 7.93194 129.168 7.77935 129.396 7.45456C129.574 7.15188 129.65 6.80075 129.614 6.45187C129.604 6.23389 129.58 6.30364 129.523 6.502C129.456 6.79465 129.333 7.07154 129.161 7.31724C128.939 7.61369 128.594 7.84693 128.651 7.89052Z" fill="#1D5396"/>
<path d="M128.651 7.89052C128.71 7.93194 129.168 7.77935 129.396 7.45456C129.574 7.15188 129.65 6.80075 129.614 6.45187C129.604 6.23389 129.58 6.30364 129.523 6.502C129.456 6.79465 129.333 7.07154 129.161 7.31724C128.939 7.61369 128.594 7.84693 128.651 7.89052Z" stroke="#1D5396" stroke-width="0.88" stroke-miterlimit="22.93"/>
</svg>
